<svg xmlns="http://www.w3.org/2000/svg" width="71.537" height="24.362" viewBox="0 0 71.537 24.362"><defs><style>.a{fill:#424242;}</style></defs><path class="a" d="M7.553,6.172a13.805,13.805,0,0,0-5.139.991A1.781,1.781,0,0,0,1.238,8.8c0,1.052.96,1.8,2.445,1.331a11.423,11.423,0,0,1,3.653-.712c2.6,0,3.715.96,3.715,3.25v1.083A16.449,16.449,0,0,0,6.81,13.2C2.136,13.2,0,15.83,0,18.771c0,3.281,2.291,5.789,6.872,5.789a12.859,12.859,0,0,0,6.965-1.888,1.352,1.352,0,0,0,.619-1.3v-8.7C14.487,8.154,11.825,6.172,7.553,6.172Zm3.5,14.239a6.378,6.378,0,0,1-3.9,1.022c-2.384,0-3.684-.991-3.684-2.817,0-1.61,1.486-2.507,3.529-2.507a15.074,15.074,0,0,1,4.055.557Zm58.5-13.93a1.764,1.764,0,0,0-1.764,1.764V22.61a1.839,1.839,0,0,0,1.764,1.826,1.77,1.77,0,0,0,1.764-1.8V8.277a1.751,1.751,0,0,0-1.764-1.8Zm-28.417-.31A13.805,13.805,0,0,0,36,7.163,1.781,1.781,0,0,0,34.824,8.8c0,1.052.991,1.8,2.445,1.331a11.262,11.262,0,0,1,3.653-.712c2.6,0,3.715.96,3.715,3.25v1.083a16.508,16.508,0,0,0-4.272-.557c-4.674,0-6.81,2.631-6.81,5.572,0,3.281,2.26,5.789,6.872,5.789a12.859,12.859,0,0,0,6.965-1.888,1.352,1.352,0,0,0,.619-1.3v-8.7c.062-4.519-2.6-6.5-6.872-6.5Zm3.5,14.239a6.378,6.378,0,0,1-3.9,1.022c-2.384,0-3.684-.991-3.684-2.817,0-1.61,1.486-2.507,3.529-2.507a15.074,15.074,0,0,1,4.055.557ZM58.071,6.172A12.3,12.3,0,0,0,51.138,8a1.381,1.381,0,0,0-.712,1.362V22.517a1.844,1.844,0,0,0,1.8,1.826,1.77,1.77,0,0,0,1.764-1.8V10.506a8.606,8.606,0,0,1,3.993-.929,3.577,3.577,0,0,1,3.9,3.807v9.132a1.817,1.817,0,0,0,1.764,1.826,1.757,1.757,0,0,0,1.764-1.733V13.23c0-4.519-2.476-7.058-7.336-7.058ZM29.9.291a1.751,1.751,0,0,0-1.764,1.8V7.1a11.339,11.339,0,0,0-4.4-.96c-4.334,0-6.81,2.569-7.182,6.748a40.82,40.82,0,0,0,0,4.767c.371,4.117,3.126,6.9,7.646,6.9a12.771,12.771,0,0,0,6.841-2.074,1.394,1.394,0,0,0,.65-1.331V2.117a1.745,1.745,0,0,0-1.733-1.8C29.933.291,29.933.291,29.9.291ZM28.138,19.916A7.686,7.686,0,0,1,24.3,21.124c-2.569,0-3.962-1.331-4.148-3.931a27.772,27.772,0,0,1,0-3.931c.124-2.445,1.331-3.715,3.9-3.715A8.753,8.753,0,0,1,28.169,10.6ZM69.556,4.16a2.028,2.028,0,0,0,1.981-2.043,2,2,0,0,0-3.993,0A2.008,2.008,0,0,0,69.525,4.16Z" transform="translate(0 -0.197)"/></svg>